<svg width="159" height="135" viewBox="0 0 159 135" fill="none" xmlns="http://www.w3.org/2000/svg">
<path d="M155.807 0H3.04813C1.36469 0 0 1.34453 0 3.00308V102.147C0 103.805 1.36469 105.15 3.04813 105.15H155.807C157.49 105.15 158.855 103.805 158.855 102.147V3.00308C158.855 1.34453 157.49 0 155.807 0Z" fill="#4A4A4A"/>
<path d="M154.647 7.25089V97.8987C154.647 98.2995 154.567 98.6964 154.411 99.0667C154.255 99.437 154.027 99.7733 153.739 100.057C153.451 100.34 153.109 100.564 152.733 100.717C152.357 100.87 151.954 100.949 151.547 100.948H7.30865C6.94265 100.948 6.57969 100.882 6.23782 100.754C5.64506 100.539 5.13356 100.15 4.7724 99.6391C4.41124 99.1285 4.21782 98.521 4.21826 97.8987V7.25089C4.21826 6.44295 4.54371 5.66804 5.12313 5.09631C5.70256 4.52457 6.4886 4.20276 7.30865 4.20154H151.547C151.949 4.19982 152.346 4.2769 152.717 4.42827C153.287 4.65694 153.774 5.04744 154.118 5.55009C154.462 6.05274 154.646 6.64479 154.647 7.25089Z" fill="white"/>
<rect x="23.4316" y="13.8864" width="112.682" height="84.0454" rx="3.75" stroke="#CAE0E7" stroke-width="0.5" stroke-dasharray="2 1"/>
<path d="M136.113 18.553H136.363V19.4697H136.113V21.303H136.363V22.2197H136.113V24.053H136.363V24.9697H136.113V26.803H136.363V27.7197H136.113V28.3864H135.371V28.6364H134.378V28.3864H132.392V28.6364H131.399V28.3864H129.414V28.6364H128.421V28.3864H126.435V28.6364H125.442V28.3864H123.457V28.6364H122.464V28.3864H120.478V28.6364H119.485V28.3864H117.5V28.6364H116.507V28.3864H114.521V28.6364H113.529V28.3864H111.543V28.6364H110.55V28.3864H108.564V28.6364H107.572V28.3864H105.586V28.6364H104.593V28.3864H102.607V28.6364H101.615V28.3864H99.629V28.6364H98.6362V28.3864H96.6505V28.6364H95.6577V28.3864H93.6721V28.6364H92.6793V28.3864H90.6936V28.6364H89.7008V28.3864H87.7151V28.6364H86.7223V28.3864H84.7367V28.6364H83.7438V28.3864H81.7582V28.6364H80.7654V28.3864H78.7797V28.6364H77.7869V28.3864H75.8013V28.6364H74.8084V28.3864H72.8228V28.6364H71.83V28.3864H69.8443V28.6364H68.8515V28.3864H66.8658V28.6364H65.873V28.3864H63.8874V28.6364H62.8946V28.3864H60.9089V28.6364H59.9161V28.3864H57.9304V28.6364H56.9376V28.3864H54.952V28.6364H53.9591V28.3864H51.9735V28.6364H50.9807V28.3864H48.995V28.6364H48.0022V28.3864H46.0166V28.6364H45.0237V28.3864H43.0381V28.6364H42.0453V28.3864H40.0596V28.6364H39.0668V28.3864H37.0812V28.6364H36.0883V28.3864H34.1027V28.6364H33.1099V28.3864H31.1242V28.6364H30.1314V28.3864H28.1458V28.6364H27.1529V28.3864H25.1673V28.6364H24.1745V28.3864H23.4316V27.7197H23.1816V26.803H23.4316V24.9697H23.1816V24.053H23.4316V22.2197H23.1816V21.303H23.4316V19.4697H23.1816V18.553H23.4316V17.6364C23.4316 17.3002 23.4758 16.9747 23.5585 16.6653L23.317 16.6007C23.4084 16.259 23.5438 15.9352 23.717 15.636L23.9333 15.7612C24.2627 15.1921 24.7374 14.7174 25.3065 14.3881L25.1813 14.1717C25.4805 13.9986 25.8042 13.8631 26.146 13.7717L26.2105 14.0133C26.52 13.9305 26.8455 13.8864 27.1816 13.8864H28.1833V13.6364H29.1851V13.8864H31.1885V13.6364H32.1903V13.8864H34.1937V13.6364H35.1955V13.8864H37.1989V13.6364H38.2007V13.8864H40.2041V13.6364H41.2059V13.8864H43.2093V13.6364H44.2111V13.8864H46.2145V13.6364H47.2162V13.8864H49.2197V13.6364H50.2214V13.8864H52.2249V13.6364H53.2266V13.8864H55.2301V13.6364H56.2318V13.8864H58.2353V13.6364H59.237V13.8864H61.2405V13.6364H62.2422V13.8864H64.2457V13.6364H65.2474V13.8864H67.2509V13.6364H68.2526V13.8864H70.2561V13.6364H71.2578V13.8864H73.2613V13.6364H74.263V13.8864H76.2665V13.6364H77.2682V13.8864H79.2717V13.6364H80.2734V13.8864H82.2769V13.6364H83.2786V13.8864H85.2821V13.6364H86.2838V13.8864H88.2873V13.6364H89.289V13.8864H91.2924V13.6364H92.2942V13.8864H94.2976V13.6364H95.2994V13.8864H97.3028V13.6364H98.3046V13.8864H100.308V13.6364H101.31V13.8864H103.313V13.6364H104.315V13.8864H106.318V13.6364H107.32V13.8864H109.324V13.6364H110.325V13.8864H112.329V13.6364H113.331V13.8864H115.334V13.6364H116.336V13.8864H118.339V13.6364H119.341V13.8864H121.344V13.6364H122.346V13.8864H124.35V13.6364H125.351V13.8864H127.355V13.6364H128.357V13.8864H130.36V13.6364H131.362V13.8864H132.363C132.7 13.8864 133.025 13.9305 133.335 14.0133L133.399 13.7717C133.741 13.8631 134.065 13.9986 134.364 14.1717L134.239 14.3881C134.808 14.7174 135.282 15.1921 135.612 15.7612L135.828 15.636C136.001 15.9353 136.137 16.259 136.228 16.6007L135.987 16.6653C136.069 16.9747 136.113 17.3002 136.113 17.6364V18.553Z" stroke="#CAE0E7" stroke-width="0.5" stroke-dasharray="2 1"/>
<path d="M118.449 23.3636H117.504V18.7972L116.109 19.2738V18.473L118.328 17.6566H118.449V23.3636Z" fill="#17313B"/>
<path d="M128.727 17.7273H122.182C121.732 17.7273 121.368 18.0954 121.368 18.5454L121.364 25.9091L123 24.2727H128.727C129.177 24.2727 129.546 23.9045 129.546 23.4545V18.5454C129.546 18.0954 129.177 17.7273 128.727 17.7273ZM123 20.5909H127.909V21.4091H123V20.5909ZM126.273 22.6363H123V21.8182H126.273V22.6363ZM127.909 20.1818H123V19.3636H127.909V20.1818Z" fill="#FF3D2E"/>
<path d="M154.647 7.25086V11.7624H4.21826V7.25086C4.21826 6.44292 4.5437 5.66801 5.12313 5.09628C5.70256 4.52455 6.4886 4.20273 7.30865 4.20151H151.552C152.373 4.20151 153.16 4.52278 153.741 5.09464C154.321 5.66651 154.647 6.44212 154.647 7.25086Z" fill="#17313B"/>
<path d="M17.9712 7.98198C17.9712 8.27484 17.883 8.56112 17.7179 8.80463C17.5528 9.04813 17.318 9.23792 17.0434 9.34999C16.7688 9.46207 16.4666 9.49139 16.175 9.43425C15.8835 9.37712 15.6157 9.23609 15.4055 9.02901C15.1953 8.82192 15.0522 8.55808 14.9942 8.27085C14.9362 7.98362 14.966 7.68589 15.0797 7.41532C15.1935 7.14476 15.3861 6.9135 15.6333 6.7508C15.8804 6.58809 16.171 6.50125 16.4683 6.50125C16.8669 6.50125 17.2491 6.65725 17.531 6.93494C17.8128 7.21264 17.9712 7.58926 17.9712 7.98198Z" fill="#E5C12B"/>
<path d="M12.4096 7.98198C12.4096 8.27484 12.3215 8.56112 12.1564 8.80463C11.9912 9.04813 11.7565 9.23792 11.4819 9.34999C11.2072 9.46207 10.9051 9.49139 10.6135 9.43425C10.322 9.37712 10.0542 9.23609 9.844 9.02901C9.63381 8.82192 9.49068 8.55808 9.43269 8.27085C9.3747 7.98362 9.40446 7.68589 9.51821 7.41532C9.63196 7.14476 9.8246 6.9135 10.0717 6.7508C10.3189 6.58809 10.6095 6.50125 10.9067 6.50125C11.3053 6.50125 11.6876 6.65725 11.9694 6.93494C12.2513 7.21264 12.4096 7.58926 12.4096 7.98198Z" fill="#FF5A52"/>
<path d="M23.5298 7.98198C23.5298 8.27484 23.4416 8.56112 23.2765 8.80463C23.1113 9.04813 22.8766 9.23792 22.602 9.34999C22.3274 9.46207 22.0252 9.49139 21.7336 9.43425C21.4421 9.37712 21.1743 9.23609 20.9641 9.02901C20.7539 8.82192 20.6108 8.55808 20.5528 8.27085C20.4948 7.98362 20.5246 7.68589 20.6383 7.41532C20.7521 7.14476 20.9447 6.9135 21.1919 6.7508C21.439 6.58809 21.7296 6.50125 22.0269 6.50125C22.4255 6.50125 22.8077 6.65725 23.0896 6.93494C23.3714 7.21264 23.5298 7.58926 23.5298 7.98198Z" fill="#53C22B"/>
<path d="M93.8774 105.103H66.9092V128.184H93.8774V105.103Z" fill="#373636"/>
<path d="M57.5249 126.879H103.261C104.956 126.879 106.582 127.543 107.781 128.724C108.98 129.905 109.653 131.507 109.653 133.177V135H51.1328V133.177C51.1328 132.35 51.2981 131.531 51.6194 130.767C51.9406 130.003 52.4115 129.309 53.005 128.724C53.5986 128.139 54.3033 127.675 55.0788 127.359C55.8543 127.042 56.6855 126.879 57.5249 126.879Z" fill="#3C3C48"/>
<path d="M127.151 62.1386C129.462 62.1386 131.336 60.265 131.336 57.9537C131.336 55.6425 129.462 53.7689 127.151 53.7689C124.84 53.7689 122.966 55.6425 122.966 57.9537C122.966 60.265 124.84 62.1386 127.151 62.1386Z" fill="#08537E"/>
<path d="M73.8377 76.9466C76.1489 76.9466 78.0226 75.1451 78.0226 72.9227C78.0226 70.7004 76.1489 68.8988 73.8377 68.8988C71.5265 68.8988 69.6528 70.7004 69.6528 72.9227C69.6528 75.1451 71.5265 76.9466 73.8377 76.9466Z" fill="#3E839E"/>
<path d="M73.8377 45.6872C76.1489 45.6872 78.0226 43.8856 78.0226 41.6633C78.0226 39.4409 76.1489 37.6394 73.8377 37.6394C71.5265 37.6394 69.6528 39.4409 69.6528 41.6633C69.6528 43.8856 71.5265 45.6872 73.8377 45.6872Z" fill="#3E839E"/>
<path d="M29.9997 42.2727C31.506 42.2727 32.727 41.0517 32.727 39.5454C32.727 38.0392 31.506 36.8182 29.9997 36.8182C28.4935 36.8182 27.2725 38.0392 27.2725 39.5454C27.2725 41.0517 28.4935 42.2727 29.9997 42.2727Z" fill="#CAE0E7"/>
<path d="M116.33 43.7488C116.329 44.1861 116.142 44.6051 115.81 44.9144C115.478 45.2236 115.028 45.3979 114.558 45.3992H83.0138C82.5442 45.3979 82.0943 45.2236 81.7623 44.9144C81.4302 44.6051 81.2431 44.1861 81.2417 43.7488V40.2886C81.2431 39.8514 81.4303 39.4324 81.7623 39.1233C82.0944 38.8142 82.5443 38.6401 83.0138 38.639H114.558C115.028 38.6401 115.478 38.8142 115.81 39.1233C116.142 39.4324 116.329 39.8514 116.33 40.2886V43.7488Z" fill="#3E839E"/>
<path d="M120.39 58.8794C120.389 59.3167 120.202 59.7356 119.87 60.0447C119.538 60.3538 119.088 60.5279 118.618 60.5291H87.0738C86.6044 60.5279 86.1544 60.3538 85.8224 60.0447C85.4903 59.7356 85.3032 59.3167 85.3018 58.8794V55.4192C85.3032 54.9819 85.4903 54.5629 85.8223 54.2537C86.1544 53.9445 86.6043 53.7702 87.0738 53.7689H118.618C119.088 53.7702 119.538 53.9445 119.87 54.2537C120.202 54.5629 120.389 54.9819 120.39 55.4192V58.8794Z" fill="#08537E"/>
<path d="M126.395 92.9152C128.706 92.9152 130.58 91.0415 130.58 88.7303C130.58 86.4191 128.706 84.5454 126.395 84.5454C124.084 84.5454 122.21 86.4191 122.21 88.7303C122.21 91.0415 124.084 92.9152 126.395 92.9152Z" fill="#08537E"/>
<path d="M119.634 89.656C119.632 90.0932 119.445 90.5122 119.113 90.8213C118.781 91.1304 118.331 91.3045 117.862 91.3056H86.3175C85.848 91.3045 85.3981 91.1304 85.066 90.8213C84.734 90.5122 84.5468 90.0932 84.5454 89.656V86.1958C84.5468 85.7585 84.734 85.3395 85.066 85.0302C85.398 84.721 85.8479 84.5467 86.3175 84.5454H117.862C118.331 84.5467 118.781 84.721 119.113 85.0302C119.445 85.3395 119.632 85.7585 119.634 86.1958V89.656Z" fill="#08537E"/>
<path d="M116.33 74.731C116.329 75.1475 116.142 75.5466 115.81 75.841C115.478 76.1355 115.028 76.3015 114.558 76.3028H83.0138C82.5442 76.3015 82.0943 76.1355 81.7623 75.841C81.4303 75.5466 81.2431 75.1475 81.2417 74.731V71.4356C81.2431 71.0192 81.4303 70.6202 81.7623 70.3258C82.0944 70.0314 82.5443 69.8656 83.0138 69.8645H114.558C115.028 69.8656 115.478 70.0314 115.81 70.3258C116.142 70.6202 116.329 71.0192 116.33 71.4356V74.731Z" fill="#3E839E"/>
<path d="M53.4405 39.9681H34.384C34.3061 39.9681 34.2314 39.874 34.1764 39.7065C34.1213 39.539 34.0903 39.3118 34.0903 39.075C34.0903 38.8381 34.1213 38.6109 34.1764 38.4434C34.2314 38.2759 34.3061 38.1818 34.384 38.1818H53.4405C53.5184 38.1818 53.5931 38.2759 53.6482 38.4434C53.7033 38.6109 53.7343 38.8381 53.7343 39.075C53.7343 39.3118 53.7033 39.539 53.6482 39.7065C53.5931 39.874 53.5184 39.9681 53.4405 39.9681Z" fill="#6A797D" fill-opacity="0.47"/>
<path d="M29.9997 53.1818C31.506 53.1818 32.727 51.9608 32.727 50.4545C32.727 48.9483 31.506 47.7273 29.9997 47.7273C28.4935 47.7273 27.2725 48.9483 27.2725 50.4545C27.2725 51.9608 28.4935 53.1818 29.9997 53.1818Z" fill="#CAE0E7"/>
<path d="M53.4405 50.8772H34.384C34.3061 50.8772 34.2314 50.7831 34.1764 50.6156C34.1213 50.4481 34.0903 50.2209 34.0903 49.984C34.0903 49.7472 34.1213 49.52 34.1764 49.3525C34.2314 49.185 34.3061 49.0909 34.384 49.0909H53.4405C53.5184 49.0909 53.5931 49.185 53.6482 49.3525C53.7033 49.52 53.7343 49.7472 53.7343 49.984C53.7343 50.2209 53.7033 50.4481 53.6482 50.6156C53.5931 50.7831 53.5184 50.8772 53.4405 50.8772Z" fill="#6A797D" fill-opacity="0.47"/>
</svg>
