<?xml version="1.0" encoding="UTF-8" standalone="no"?>
<svg xmlns:dc="http://purl.org/dc/elements/1.1/"
   xmlns:cc="http://creativecommons.org/ns#"
   xmlns:rdf="http://www.w3.org/1999/02/22-rdf-syntax-ns#"
   xmlns:svg="http://www.w3.org/2000/svg"
   xmlns="http://www.w3.org/2000/svg"
   xmlns:sodipodi="http://sodipodi.sourceforge.net/DTD/sodipodi-0.dtd"
   xmlns:inkscape="http://www.inkscape.org/namespaces/inkscape" inkscape:version="1.0 (4035a4f, 2020-05-01)" sodipodi:docname="icon-tooltip.svg" id="svg8" version="1.1" viewBox="0 0 135.46666 135.46666" height="135.46666mm" width="135.46666mm">
   <defs id="defs2" />
   <sodipodi:namedview inkscape:window-maximized="0" inkscape:window-y="69" inkscape:window-x="1676" inkscape:window-height="847" inkscape:window-width="1440" showgrid="false" inkscape:document-rotation="0" inkscape:current-layer="layer1" inkscape:document-units="mm" inkscape:cy="131.8682" inkscape:cx="-294.91047" inkscape:zoom="0.30549669" inkscape:pageshadow="2" inkscape:pageopacity="0.0" borderopacity="1.0" bordercolor="#666666" pagecolor="#ffffff" id="base" />
   <metadata id="metadata5">
      <rdf:RDF>
         <cc:Work rdf:about="">
            <dc:format>image/svg+xml</dc:format>
            <dc:type rdf:resource="http://purl.org/dc/dcmitype/StillImage" />
            <dc:title></dc:title>
         </cc:Work>
      </rdf:RDF>
   </metadata>
   <g transform="translate(-8.4813485,-5.0170466)" id="layer1" inkscape:groupmode="layer" inkscape:label="Warstwa 1">
      <g style="fill:#3e839e;fill-opacity:1" transform="matrix(0.26458333,0,0,0.26458333,8.4813485,5.0170466)" id="g89">
         <g style="fill:#3e839e;fill-opacity:1" id="g14">
            <g style="fill:#3e839e;fill-opacity:1" id="g12">
               <path style="fill:#3e839e;fill-opacity:1" d="M 256,0 C 114.511,0 0,114.496 0,256 0,397.489 114.496,512 256,512 397.489,512 512,397.504 512,256 512,114.511 397.504,0 256,0 Z m 0,476.279 C 134.538,476.279 35.721,377.462 35.721,256 35.721,134.538 134.538,35.721 256,35.721 c 121.462,0 220.279,98.817 220.279,220.279 0,121.462 -98.817,220.279 -220.279,220.279 z" id="path10" />
            </g>
         </g>
         <g style="fill:#3e839e;fill-opacity:1" id="g20">
            <g style="fill:#3e839e;fill-opacity:1" id="g18">
               <path style="fill:#3e839e;fill-opacity:1" d="m 256,203.609 c -9.864,0 -17.86,7.997 -17.86,17.86 v 146.456 c 0,9.864 7.997,17.86 17.86,17.86 9.863,0 17.86,-7.997 17.86,-17.86 V 221.47 c 0,-9.864 -7.996,-17.861 -17.86,-17.861 z" id="path16" />
            </g>
         </g>
         <g style="fill:#3e839e;fill-opacity:1" id="g26">
            <g style="fill:#3e839e;fill-opacity:1" id="g24">
               <path style="fill:#3e839e;fill-opacity:1" d="m 256,126.214 c -9.864,0 -17.86,7.997 -17.86,17.86 v 21.433 c 0,9.864 7.997,17.86 17.86,17.86 9.863,0 17.86,-7.997 17.86,-17.86 v -21.433 c 0,-9.863 -7.996,-17.86 -17.86,-17.86 z" id="path22" />
            </g>
         </g>
         <g style="fill:#3e839e;fill-opacity:1" id="g28"></g>
         <g style="fill:#3e839e;fill-opacity:1" id="g30"></g>
         <g style="fill:#3e839e;fill-opacity:1" id="g32"></g>
         <g style="fill:#3e839e;fill-opacity:1" id="g34"></g>
         <g style="fill:#3e839e;fill-opacity:1" id="g36"></g>
         <g style="fill:#3e839e;fill-opacity:1" id="g38"></g>
         <g style="fill:#3e839e;fill-opacity:1" id="g40"></g>
         <g style="fill:#3e839e;fill-opacity:1" id="g42"></g>
         <g style="fill:#3e839e;fill-opacity:1" id="g44"></g>
         <g style="fill:#3e839e;fill-opacity:1" id="g46"></g>
         <g style="fill:#3e839e;fill-opacity:1" id="g48"></g>
         <g style="fill:#3e839e;fill-opacity:1" id="g50"></g>
         <g style="fill:#3e839e;fill-opacity:1" id="g52"></g>
         <g style="fill:#3e839e;fill-opacity:1" id="g54"></g>
         <g style="fill:#3e839e;fill-opacity:1" id="g56"></g>
      </g>
   </g>
</svg>
