<svg data-v-1b635259="" fill="none" viewBox="0 0 16 11" height="11" width="16" xmlns="http://www.w3.org/2000/svg">
    <path xmlns="http://www.w3.org/2000/svg" d="M8.68172 0.79541H3.79468V1.59087H8.68172V0.79541Z" fill="#FF3D2E"></path>
    <path xmlns="http://www.w3.org/2000/svg" d="M7.01438 4.77271H3.79468V5.56816H7.01438V4.77271Z" fill="#FF3D2E"></path>
    <path xmlns="http://www.w3.org/2000/svg" d="M15.1785 4.77271H8.68164V5.56816H15.1785V4.77271Z" fill="#FF3D2E"></path>
    <path xmlns="http://www.w3.org/2000/svg" d="M12.3038 1.98865H11.4989V8.40911H12.3038V1.98865Z" fill="#FF3D2E"></path>
    <path xmlns="http://www.w3.org/2000/svg" d="M8.68172 8.80688H3.79468V9.60234H8.68172V8.80688Z" fill="#FF3D2E"></path>
    <path xmlns="http://www.w3.org/2000/svg" d="M1.20739 2.38637C0.517451 2.38637 0 1.875 0 1.19318C0 0.511364 0.517451 0 1.20739 0C1.89732 0 2.41477 0.511364 2.41477 1.19318C2.41477 1.875 1.83983 2.38637 1.20739 2.38637ZM1.20739 0.795455C0.977408 0.795455 0.804926 0.96591 0.804926 1.19318C0.804926 1.42046 0.977408 1.59091 1.20739 1.59091C1.43736 1.59091 1.60985 1.42046 1.60985 1.19318C1.60985 0.96591 1.43736 0.795455 1.20739 0.795455Z" fill="#FF3D2E"></path>
    <path xmlns="http://www.w3.org/2000/svg" d="M1.20739 6.36366C0.517451 6.36366 0 5.8523 0 5.17048C0 4.48866 0.517451 3.97729 1.20739 3.97729C1.89732 3.97729 2.41477 4.48866 2.41477 5.17048C2.41477 5.8523 1.83983 6.36366 1.20739 6.36366ZM1.20739 4.77275C0.977408 4.77275 0.804926 4.9432 0.804926 5.17048C0.804926 5.39775 0.977408 5.5682 1.20739 5.5682C1.43736 5.5682 1.60985 5.39775 1.60985 5.17048C1.60985 4.9432 1.43736 4.77275 1.20739 4.77275Z" fill="#FF3D2E"></path>
    <path xmlns="http://www.w3.org/2000/svg" d="M1.20739 10.3978C0.517451 10.3978 0 9.88648 0 9.20466C0 8.52284 0.517451 8.01147 1.20739 8.01147C1.89732 8.01147 2.41477 8.52284 2.41477 9.20466C2.41477 9.88648 1.83983 10.3978 1.20739 10.3978ZM1.20739 8.80693C0.977408 8.80693 0.804926 8.97738 0.804926 9.20466C0.804926 9.43193 0.977408 9.60239 1.20739 9.60239C1.43736 9.60239 1.60985 9.43193 1.60985 9.20466C1.60985 8.97738 1.43736 8.80693 1.20739 8.80693Z" fill="#FF3D2E"></path>
</svg>